<svg version="1.1" xmlns="http://www.w3.org/2000/svg" xmlns:xlink="http://www.w3.org/1999/xlink" width="1450.81049" height="1101.386" viewBox="0,0,1450.81049,1101.386"><g transform="translate(485.40525,370.693)"><g stroke-miterlimit="10"><path d="M-485.40525,730.693v-1101.386h1450.81049v1101.386z" fill-opacity="0.4902" fill="#0b1321" stroke="none" stroke-width="0"/><path d="M132.23552,238.72608c-0.17022,-0.20885 -0.08658,-117.35086 0,-117.47171c0.07453,-0.10404 215.15664,-0.27448 215.47171,0c0.26186,0.22813 0.14617,117.33503 0,117.47171c-0.21781,0.20367 -215.27311,0.24367 -215.47171,0z" fill="none" stroke="#1d2840" stroke-width="10"/><path d="M132.23552,238.72608c-0.17022,-0.20885 -0.08658,-117.35086 0,-117.47171c0.07453,-0.10404 215.15664,-0.27448 215.47171,0c0.26186,0.22813 0.14617,117.33503 0,117.47171c-0.21781,0.20367 -215.27311,0.24367 -215.47171,0z" fill="#0b1220" stroke="#0b1220" stroke-width="5"/></g></g></svg>