<svg version="1.1" xmlns="http://www.w3.org/2000/svg" xmlns:xlink="http://www.w3.org/1999/xlink" width="44.47172" height="49.47171" viewBox="0,0,44.47172,49.47171"><g transform="translate(-217.73554,-157.75437)"><g stroke-miterlimit="10"><path d="M220.23556,204.72608c-0.17022,-0.20885 -0.08658,-39.35086 0,-39.47171c0.07453,-0.10404 39.15664,-0.27448 39.47171,0c0.26186,0.22813 0.14617,39.33503 0,39.47171c-0.21781,0.20367 -39.27311,0.24367 -39.47171,0z" fill="#182135" stroke="#2b2b2d" stroke-width="5"/><path d="M220.23555,199.72608c-0.17022,-0.20885 -0.08658,-39.35086 0,-39.47171c0.07453,-0.10404 39.15664,-0.27448 39.47171,0c0.26186,0.22813 0.14617,39.33503 0,39.47171c-0.21781,0.20367 -39.27311,0.24367 -39.47171,0z" fill="#3a3a3c" stroke="#3a3a3c" stroke-width="5"/><path d="M221.2908,160.96602c1.0543,-1.0543 35.86425,-1.0543 36.91855,0c1.0543,1.0543 1.0543,2.76364 0,3.81794c-1.0543,1.0543 -35.86425,1.0543 -36.91855,0c-1.0543,-1.0543 -1.0543,-2.76364 0,-3.81794z" fill="#4a4a4b" stroke="none" stroke-width="0.5"/></g></g></svg>