<svg version="1.1" xmlns="http://www.w3.org/2000/svg" xmlns:xlink="http://www.w3.org/1999/xlink" width="80.97585" height="52.48272" viewBox="0,0,80.97585,52.48272"><defs><linearGradient x1="240.00002" y1="164.89861" x2="240.00002" y2="180.10141" gradientUnits="userSpaceOnUse" id="color-1"><stop offset="0" stop-color="#000000"/><stop offset="1" stop-color="#000000" stop-opacity="0"/></linearGradient></defs><g transform="translate(-199.50265,-131.15422)"><g stroke-miterlimit="10"><path d="M232.39862,172.50001l7.6014,-7.6014l7.6014,7.6014l-7.6014,7.6014z" fill="none" stroke="url(#color-1)" stroke-width="5"/><path d="M232.39861,172.50001l7.6014,-7.6014l7.6014,7.6014l-7.6014,7.6014z" fill="#1d2840" stroke="none" stroke-width="0"/><path d="M204.50266,170.23815c-0.05607,-0.0453 -0.02852,-25.45429 0,-25.48051c0.02455,-0.02256 70.87206,-0.05954 70.97585,0c0.08626,0.04949 0.04815,25.45087 0,25.48051c-0.07174,0.04418 -70.91043,0.05285 -70.97585,0z" fill="none" stroke="#1d2840" stroke-width="10"/><path d="M204.50266,170.23815c-0.05607,-0.0453 -0.02852,-25.45429 0,-25.48051c0.02455,-0.02256 70.87206,-0.05954 70.97585,0c0.08626,0.04949 0.04815,25.45087 0,25.48051c-0.07174,0.04418 -70.91043,0.05285 -70.97585,0z" fill="#0b1220" stroke="#0b1220" stroke-width="5"/><text transform="translate(205.38504,154.37631) scale(0.28495,0.28495)" font-size="40" xml:space="preserve" fill="#ffffff" stroke="none" stroke-width="1" font-family="Sans Serif" font-weight="normal" text-anchor="start"><tspan x="0" dy="0">Progress will</tspan></text><text transform="translate(216.39527,167.19878) scale(0.28495,0.28495)" font-size="40" xml:space="preserve" fill="#ffffff" stroke="none" stroke-width="1" font-family="Sans Serif" font-weight="normal" text-anchor="start"><tspan x="0" dy="0">be reset!</tspan></text><g fill="#0b1220"><path d="M238.90299,134.69005c-0.58664,1.85992 -1.23717,3.62432 -2.02472,5.38308c-0.24364,0.54411 -0.48112,1.09435 -0.74195,1.62244c-0.03517,0.07122 -0.08407,0.15601 -0.1414,0.246c0.37776,-0.0082 0.8067,0.05855 1.1081,0.032c2.12133,-0.18683 4.24534,-0.50376 6.37272,-0.74679c-0.37404,-0.47943 -0.67353,-1.17929 -1.07283,-1.76488c-1.12657,-1.65212 -2.42512,-3.05995 -3.49993,-4.77186zM239.55398,132.25712l0.07839,0.1471c1.56106,2.94613 3.68062,5.20605 5.45309,7.90462l0.07596,-0.13065l0.87205,1.00424c0.1815,0.20574 0.29764,0.52111 0.29764,0.87466c0,0.57587 -0.30812,1.05045 -0.70498,1.11495l-0.95015,0.17479l-0.00089,-0.00958l-0.02235,0.01336c-2.48437,0.24941 -4.96159,0.64468 -7.43771,0.86226c-0.62542,0.05496 -3.02881,0.38277 -3.48229,-0.65161c-0.36948,-0.84277 0.77787,-2.50777 1.10198,-3.16305c1.33392,-2.6969 2.31495,-5.47679 3.18,-8.52309c0,0 0.29618,-1.04214 1.03661,-0.62528c0.41944,0.23614 0.50624,0.67294 0.50266,1.00728z" stroke="#0b1220" stroke-width="2.5"/><path d="M242.44428,139.47938c0.39931,0.58559 0.69296,1.29545 1.06699,1.77487c-2.12738,0.24303 -4.31323,0.56887 -6.43455,0.7557c-0.3014,0.02654 -0.73635,-0.04542 -1.11411,-0.03721c0.05732,-0.08998 0.10573,-0.1753 0.1409,-0.24652c0.26083,-0.52809 0.49276,-1.08564 0.7364,-1.62974c0.78756,-1.75877 1.46644,-3.59027 2.05308,-5.45019c1.07481,1.7119 2.42471,3.18097 3.55128,4.8331z" stroke="none" stroke-width="0.5"/></g><path d="M239.5626,132.30029l0.07839,0.1471c1.56106,2.94613 3.68062,5.20605 5.45309,7.90462l0.07596,-0.13065l0.87205,1.00424c0.1815,0.20574 0.29764,0.52111 0.29764,0.87466c0,0.57587 -0.30812,1.05045 -0.70497,1.11495l-0.95015,0.17479l-0.00089,-0.00958l-0.02234,0.01336c-2.48437,0.24941 -4.96159,0.64468 -7.43771,0.86226c-0.62542,0.05496 -3.02881,0.38277 -3.48229,-0.65161c-0.36948,-0.84277 0.77787,-2.50777 1.10198,-3.16305c1.33392,-2.6969 2.31495,-5.47679 3.18,-8.52309c0,0 0.29618,-1.04214 1.03661,-0.62528c0.41945,0.23614 0.50623,0.67294 0.50266,1.00728z" fill="#ffffff" stroke="none" stroke-width="0.5"/><g fill="#ffffff" stroke="#0b1220" stroke-width="2.5"><path d="M239.00989,142.64106c0,-0.63419 0.51411,-1.1483 1.1483,-1.1483c0.63419,0 1.14829,0.51411 1.14829,1.1483c0,0.63419 -0.51411,1.1483 -1.14829,1.1483c-0.63419,0 -1.1483,-0.51411 -1.1483,-1.1483z"/><path d="M240.86581,133.39877c1.08937,0.36312 0.72625,1.45249 0.72625,1.45249l-0.19303,0.55106c-0.23552,1.1673 -0.32326,2.25911 -0.32219,3.44935c0,0 0,1.1483 -1.1483,1.1483c-1.1483,0 -1.1483,-1.1483 -1.1483,-1.1483c0.00111,-1.33971 0.10593,-2.58512 0.36679,-3.89975l0.26629,-0.8269c0,0 0.36312,-1.08937 1.45249,-0.72625z"/></g><g fill="#ffffff" stroke="none" stroke-width="0"><path d="M239.00989,142.64106c0,-0.63419 0.51412,-1.14829 1.1483,-1.14829c0.63419,0 1.14829,0.51411 1.14829,1.14829c0,0.63419 -0.51411,1.1483 -1.14829,1.1483c-0.63419,0 -1.1483,-0.51412 -1.1483,-1.1483z"/><path d="M240.86581,133.39877c1.08937,0.36312 0.72625,1.45249 0.72625,1.45249l-0.19303,0.55106c-0.23551,1.1673 -0.32326,2.25911 -0.32219,3.44935c0,0 0,1.14829 -1.1483,1.14829c-1.1483,0 -1.1483,-1.14829 -1.1483,-1.14829c0.00111,-1.33971 0.10593,-2.58513 0.36679,-3.89975l0.26629,-0.8269c0,0 0.36312,-1.08937 1.45249,-0.72625z"/></g></g></g></svg>