<svg version="1.1" xmlns="http://www.w3.org/2000/svg" xmlns:xlink="http://www.w3.org/1999/xlink" width="44.47173" height="49.47171" viewBox="0,0,44.47173,49.47171"><g transform="translate(-217.73554,-157.75437)"><g stroke-miterlimit="10"><path d="M220.23556,199.72608c-0.17022,-0.20885 -0.08658,-39.35086 0,-39.47171c0.07453,-0.10404 39.15664,-0.27448 39.47171,0c0.26186,0.22813 0.14617,39.33503 0,39.47171c-0.21781,0.20367 -39.27311,0.24367 -39.47171,0z" fill-opacity="0.42745" fill="#0c1321" stroke-opacity="0.42745" stroke="#0b1321" stroke-width="5"/><path d="M220.23555,204.72608c-0.17022,-0.20885 -0.08658,-39.35086 0,-39.47171c0.07453,-0.10404 39.15664,-0.27448 39.47171,0c0.26186,0.22813 0.14617,39.33503 0,39.47171c-0.21781,0.20367 -39.27311,0.24367 -39.47171,0z" fill="#182135" stroke="#4b9144" stroke-width="5"/><path d="M220.23554,202.72608c-0.17022,-0.20885 -0.08658,-39.35086 0,-39.47171c0.07453,-0.10404 39.15664,-0.27448 39.47171,0c0.26186,0.22813 0.14617,39.33503 0,39.47171c-0.21781,0.20367 -39.27311,0.24367 -39.47171,0z" fill="#72bf6b" stroke="#72bf6b" stroke-width="5"/><path d="M221.29079,163.96602c1.0543,-1.0543 35.86425,-1.0543 36.91855,0c1.0543,1.0543 1.0543,2.76364 0,3.81794c-1.0543,1.0543 -35.86425,1.0543 -36.91855,0c-1.0543,-1.0543 -1.0543,-2.76364 0,-3.81794z" fill="#8bd884" stroke="none" stroke-width="0.5"/></g></g></svg>