<svg version="1.1" xmlns="http://www.w3.org/2000/svg" xmlns:xlink="http://www.w3.org/1999/xlink" width="1450.81049" height="1101.386" viewBox="0,0,1450.81049,1101.386"><g transform="translate(485.40525,370.693)"><g stroke-miterlimit="10"><path d="M-485.40524,730.693v-1101.386h1450.81049v1101.386z" fill-opacity="0.4902" fill="#0b1321" stroke="none" stroke-width="0"/><path d="M132.23552,311.51773c-0.17022,-0.46772 -0.08658,-262.8086 0,-263.07925c0.07453,-0.233 215.15664,-0.6147 215.47171,0c0.26186,0.5109 0.14617,262.77315 0,263.07925c-0.21781,0.45612 -215.27311,0.5457 -215.47171,0z" fill="none" stroke="#1d2840" stroke-width="10"/><path d="M132.23552,311.51773c-0.17022,-0.46772 -0.08658,-262.8086 0,-263.07925c0.07453,-0.233 215.15664,-0.6147 215.47171,0c0.26186,0.5109 0.14617,262.77315 0,263.07925c-0.21781,0.45612 -215.27311,0.5457 -215.47171,0z" fill="#0b1220" stroke="#0b1220" stroke-width="5"/></g></g></svg>