<svg version="1.1" xmlns="http://www.w3.org/2000/svg" xmlns:xlink="http://www.w3.org/1999/xlink" width="24.30504" height="25.84671" viewBox="0,0,24.30504,25.84671"><g transform="translate(-227.81886,-167.06687)"><g stroke-miterlimit="10"><path d="M230.31886,190.41358c-0.17022,-0.20885 -0.08658,-18.22586 0,-18.34671c0.07453,-0.10404 18.98997,-0.27448 19.30504,0c0.26186,0.22813 0.14617,18.21003 0,18.34671c-0.21781,0.20367 -19.10644,0.24367 -19.30504,0z" fill="#361818" stroke="#541818" stroke-width="5"/><path d="M230.31886,187.91358c-0.17022,-0.20885 -0.08658,-18.22586 0,-18.34671c0.07453,-0.10404 18.98997,-0.27448 19.30504,0c0.26186,0.22813 0.14617,18.21003 0,18.34671c-0.21781,0.20367 -19.10644,0.24367 -19.30504,0z" fill="#a63c3c" stroke="#a63c3c" stroke-width="5"/><path d="M231.40107,170.40352c1.09024,-1.0543 16.23272,-1.0543 17.32297,0c1.09024,1.0543 1.09024,2.76364 0,3.81794c-1.09024,1.0543 -16.23272,1.0543 -17.32297,0c-1.09024,-1.0543 -1.09024,-2.76364 0,-3.81794z" fill="#c25959" stroke="none" stroke-width="0.5"/><path d="M232.97443,173.84927l2.37484,-2.37484l11.6763,11.6763l-2.37484,2.37484z" fill="#ffffff" stroke="none" stroke-width="0"/><path d="M244.65073,171.47443l2.37484,2.37484l-11.6763,11.6763l-2.37484,-2.37484z" fill="#ffffff" stroke="none" stroke-width="0"/></g></g></svg>