<svg version="1.1" xmlns="http://www.w3.org/2000/svg" xmlns:xlink="http://www.w3.org/1999/xlink" width="49.50037" height="53.21194" viewBox="0,0,49.50037,53.21194"><g transform="translate(-215.23554,-155.26414)"><g stroke-miterlimit="10"><path d="M220.23554,203.47608c-0.17022,-0.20885 -0.08658,-39.35086 0,-39.47171c0.07453,-0.10404 39.15664,-0.27448 39.47171,0c0.26186,0.22813 0.14617,39.33503 0,39.47171c-0.21781,0.20367 -39.27311,0.24367 -39.47171,0z" fill="#c9b458" stroke="#7d6a16" stroke-width="10"/><path d="M220.2642,199.73585c-0.17022,-0.20885 -0.08658,-39.35086 0,-39.47171c0.07453,-0.10404 39.15664,-0.27448 39.47171,0c0.26186,0.22813 0.14617,39.33503 0,39.47171c-0.21781,0.20367 -39.27311,0.24367 -39.47171,0z" fill="#c9b458" stroke="#c9b458" stroke-width="10"/><path d="M220.0921,159.84207c1.12276,-1.12276 38.1931,-1.12276 39.31586,0c1.12276,1.12276 1.12276,2.9431 0,4.06586c-1.12276,1.12276 -38.1931,1.12276 -39.31586,0c-1.12276,-1.12276 -1.12276,-2.9431 0,-4.06586z" fill="#e6d589" stroke="none" stroke-width="0.5"/></g></g></svg>