<svg version="1.1" xmlns="http://www.w3.org/2000/svg" xmlns:xlink="http://www.w3.org/1999/xlink" width="78.30504" height="29.47171" viewBox="0,0,78.30504,29.47171"><g transform="translate(-200.81886,-166.50437)"><g stroke-miterlimit="10"><path d="M203.31886,193.47608c-0.17022,-0.20885 -0.08658,-21.85086 0,-21.97171c0.07453,-0.10404 72.98997,-0.27448 73.30504,0c0.26186,0.22813 0.14617,21.83503 0,21.97171c-0.21781,0.20367 -73.10644,0.24367 -73.30504,0z" fill="#182135" stroke="#181f53" stroke-width="5"/><path d="M203.31886,190.97608c-0.17022,-0.20885 -0.08658,-21.85086 0,-21.97171c0.07453,-0.10404 72.98997,-0.27448 73.30504,0c0.26186,0.22813 0.14617,21.83503 0,21.97171c-0.21781,0.20367 -73.10644,0.24367 -73.30504,0z" fill="#3c49a7" stroke="#3c49a7" stroke-width="5"/><path d="M204.37411,169.71602c1.0543,-1.0543 69.69758,-1.0543 70.75188,0c1.0543,1.0543 1.0543,2.76364 0,3.81794c-1.0543,1.0543 -69.69758,1.0543 -70.75188,0c-1.0543,-1.0543 -1.0543,-2.76364 0,-3.81794z" fill="#5965c3" stroke="none" stroke-width="0.5"/></g></g></svg>